# xmcd
#
# Track frame offsets: 
#        150
#        12760
#        22815
#        35013
#        45345
#        62468
#        80713
#        93949
#        109441
#        121165
#        136739
#        150281
#        167599
#        178504
#        195556
#        209080
#        224433
#        235874
#        251994
#        264141
#        276171
#        288981
#
# Disc length: 3996 seconds
#
# Revision: 0
# Processed by: cddbd v1.5.2PL0 Copyright (c) Steve Scherf et al.
# Submitted via: ExactAudioCopy v1.3
#
DISCID=2a0f9a16
DTITLE=Ray Price, 1972, 1973 - The Lonesomest Lonesome (1972)_She's Go
DTITLE=To Be A Saint (1973)
DYEAR=2019
DGENRE=Country
TTITLE0=Ray Price, 1972 - The Lonesomest Lonesome
TTITLE1=Ray Price, 1972 - But I Was Lying
TTITLE2=Ray Price, 1972 - One Night To Remember
TTITLE3=Ray Price, 1972 - Just The Other Side Of Nowhere
TTITLE4=Ray Price, 1972 - Empty Chairs
TTITLE5=Ray Price, 1972 - Time (Old Faithful Friend Of Mine)
TTITLE6=Ray Price, 1972 - That's What Leaving's About
TTITLE7=Ray Price, 1972 - Wake Up Yesterday
TTITLE8=Ray Price, 1972 - Over
TTITLE9=Ray Price, 1972 - This House
TTITLE10=Ray Price, 1972 - Oh, Lonesome Me
TTITLE11=Ray Price, 1973 - She's Got To Be A Saint
TTITLE12=Ray Price, 1973 - Turn Around, Look At Me
TTITLE13=Ray Price, 1973 - Sunday
TTITLE14=Ray Price, 1973 - Nobody Wins
TTITLE15=Ray Price, 1973 - Everything That's Beautiful (Reminds Me Of 
TTITLE15=You)
TTITLE16=Ray Price, 1973 - Goin' Away
TTITLE17=Ray Price, 1973 - Help Me
TTITLE18=Ray Price, 1973 - My Baby's Gone
TTITLE19=Ray Price, 1973 - Enough For Youi
TTITLE20=Ray Price, 1973 - The Sweetest Tie
TTITLE21=Ray Price, 1973 - I Keep Looking Back
EXTD=
EXTT0=
EXTT1=
EXTT2=
EXTT3=
EXTT4=
EXTT5=
EXTT6=
EXTT7=
EXTT8=
EXTT9=
EXTT10=
EXTT11=
EXTT12=
EXTT13=
EXTT14=
EXTT15=
EXTT16=
EXTT17=
EXTT18=
EXTT19=
EXTT20=
EXTT21=
PLAYORDER=
